<svg xmlns="http://www.w3.org/2000/svg" viewBox="0 0 192 192">
  <defs>
    <linearGradient id="bg192" x1="0%" y1="0%" x2="100%" y2="100%">
      <stop offset="0%" style="stop-color:#1e3a5f"/>
      <stop offset="100%" style="stop-color:#0f2744"/>
    </linearGradient>
  </defs>

  <!-- Background -->
  <rect width="192" height="192" rx="36" fill="url(#bg192)"/>

  <!-- Car simplified -->
  <g transform="translate(20, 50)">
    <path d="M20 50 L35 25 L115 25 L130 50 L145 50 L145 80 L5 80 L5 50 Z"
          fill="#FFF" stroke="#FFF" stroke-width="2"/>
    <!-- Wheels -->
    <circle cx="40" cy="80" r="15" fill="#333"/>
    <circle cx="110" cy="80" r="15" fill="#333"/>
    <!-- Damage -->
    <path d="M80 35 L95 50 M85 35 L100 50" stroke="#FF3B30" stroke-width="3" stroke-linecap="round"/>
  </g>

  <!-- Chat bubble -->
  <g transform="translate(100, 105)">
    <path d="M0 0 C0 -8, 8 -16, 24 -16 L56 -16 C72 -16, 80 -8, 80 0 L80 24 C80 32, 72 40, 56 40 L24 40 L12 52 L12 40 C8 40, 0 32, 0 24 Z"
          fill="#FFF" opacity="0.95"/>
    <circle cx="22" cy="12" r="5" fill="#1e3a5f"/>
    <circle cx="40" cy="12" r="5" fill="#1e3a5f" opacity="0.6"/>
    <circle cx="58" cy="12" r="5" fill="#1e3a5f" opacity="0.3"/>
  </g>
</svg>
